#N canvas 94 468 378 320 10;
#X obj 173 255 outlet~;
#X obj 224 194 vd~ \$1-body;
#X obj 239 132 ftot~;
#X obj 227 76 mtof;
#X obj 227 15 inlet;
#X obj 224 230 *~ 0.99;
#X obj 76 85 noise~;
#X obj 224 254 lop~ 10000;
#X obj 31 61 inlet;
#X obj 128 213 *~;
#X obj 30 104 line~;
#X msg 31 82 \$1 50;
#X obj 223 276 delwrite~ \$1-body 1000;
#X obj 76 109 expr~ pow($v1 \, 260001);
#X obj 224 164 *~ 2;
#X connect 1 0 5 0;
#X connect 1 0 0 0;
#X connect 2 0 14 0;
#X connect 3 0 2 0;
#X connect 4 0 3 0;
#X connect 5 0 7 0;
#X connect 6 0 13 0;
#X connect 7 0 12 0;
#X connect 8 0 11 0;
#X connect 9 0 5 0;
#X connect 10 0 9 0;
#X connect 11 0 10 0;
#X connect 13 0 9 1;
#X connect 14 0 1 0;
