#N canvas 42 -1 952 684 10;
#X obj 634 426 f;
#X text 473 176 range;
#X floatatom 294 95 4 0 127 0 from - -;
#X floatatom 338 95 4 0 127 0 to - -;
#X obj 608 346 tgl 15 0 empty empty empty 17 7 0 10 -262144 -1 -1 1
1;
#X obj 31 222 vradio 15 1 0 3 empty empty empty 0 -8 0 10 -262144 -1
-1 0;
#X text 48 219 up;
#X text 48 235 down;
#X text 47 251 random;
#X obj 472 236 sel 0 1;
#X obj 502 567 f;
#X obj 33 185 tgl 20 0 empty empty arpeggio_ON/OFF 26 14 2 12 -262144
-1 -1 1 1;
#X obj 551 484 sel 1;
#X obj 631 459 spigot;
#X msg 672 340 1;
#X msg 669 370 0;
#X msg 723 341 1;
#X msg 729 369 0;
#X obj 540 363 + 1;
#X obj 769 460 - 1;
#X obj 549 446 >;
#X obj 630 491 - 0;
#X obj 766 490 <;
#X obj 694 424 spigot;
#X obj 745 565 f;
#X obj 462 455 - 0;
#X obj 772 515 sel 1;
#X obj 608 370 metro 600;
#X floatatom 626 514 5 0 0 0 - - -;
#X floatatom 294 116 0 1 1e+006 0 ms/tone - -;
#X obj 410 24 loadbang;
#X msg 410 70 20;
#X msg 451 72 80;
#X msg 426 101 1000;
#X msg 420 133 0;
#X obj 654 208 -;
#X obj 642 175 bng 15 250 50 0 empty empty empty 17 7 0 10 -262144
-1 -1;
#X floatatom 653 235 5 0 0 0 - - -;
#X obj 404 2 bng 15 250 50 0 empty empty empty 17 7 0 10 -262144 -1
-1;
#X obj 655 285 random;
#X obj 691 269 + 1;
#X obj 594 237 +;
#X msg 758 345 1;
#X msg 764 373 0;
#X obj 753 426 spigot;
#X obj 378 200 / 100;
#X connect 0 0 13 0;
#X connect 0 0 23 0;
#X connect 2 0 25 0;
#X connect 2 0 36 0;
#X connect 2 0 35 1;
#X connect 2 0 41 1;
#X connect 3 0 20 1;
#X connect 3 0 24 1;
#X connect 3 0 36 0;
#X connect 3 0 35 0;
#X connect 4 0 27 0;
#X connect 5 0 9 0;
#X connect 9 0 14 0;
#X connect 9 0 17 0;
#X connect 9 0 43 0;
#X connect 9 1 15 0;
#X connect 9 1 16 0;
#X connect 9 1 43 0;
#X connect 9 2 15 0;
#X connect 9 2 17 0;
#X connect 9 2 42 0;
#X connect 10 0 0 1;
#X connect 11 0 4 0;
#X connect 12 0 10 0;
#X connect 13 0 18 0;
#X connect 13 0 21 0;
#X connect 14 0 13 1;
#X connect 15 0 13 1;
#X connect 16 0 23 1;
#X connect 17 0 23 1;
#X connect 18 0 0 1;
#X connect 18 0 20 0;
#X connect 19 0 0 1;
#X connect 19 0 22 0;
#X connect 20 0 12 0;
#X connect 21 0 28 0;
#X connect 22 0 26 0;
#X connect 23 0 19 0;
#X connect 23 0 21 0;
#X connect 24 0 0 1;
#X connect 25 0 10 1;
#X connect 25 0 22 1;
#X connect 26 0 24 0;
#X connect 27 0 0 0;
#X connect 27 0 39 0;
#X connect 29 0 45 0;
#X connect 30 0 31 0;
#X connect 30 0 32 0;
#X connect 30 0 33 0;
#X connect 31 0 2 0;
#X connect 32 0 3 0;
#X connect 33 0 29 0;
#X connect 34 0 5 0;
#X connect 35 0 37 0;
#X connect 36 0 35 0;
#X connect 36 0 41 0;
#X connect 37 0 40 0;
#X connect 38 0 30 0;
#X connect 39 0 41 0;
#X connect 40 0 39 1;
#X connect 41 0 44 0;
#X connect 42 0 44 1;
#X connect 43 0 44 1;
#X connect 44 0 21 0;
#X connect 45 0 27 1;
#X coords 0 0 1 1 358 440 2 10 90;
