#N canvas 200 103 741 463 10;
#X text 353 99 II. Modus;
#X obj 55 132 expr if ($f1%3==0 \, $f1+$f1/3 \, if (($f1+1)%3==0 \,
$f1+($f1+1)/3 \, $f1+($f1+2)/3));
#X text 346 133 III. Modus;
#X obj 59 95 expr if ($f1%2==0 \, $f1+($f1/2) \, $f1+$f1/2-0.5);
#X obj 59 308 expr if ($f1%2==0 \, $f1+($f1/2) \, $f1+$f1/2-0.5)*2
;
#X text 362 307 XI. Modus;
#X text 351 252 XII.Modus;
#X text 562 126 1 4 5 8 9 12;
#X text 562 116 1 2 3 4 5 6;
#X obj 90 254 expr if ($f1%2==0 \, $f1+($f1/2)*2 \, $f1*2-1);
