#N canvas 669 301 835 784 10;
#X obj 14 94 cnv 15 350 240 empty empty empty 20 12 0 14 -154614 -66577
0;
#X floatatom 283 104 4 0 127 0 from - -;
#X floatatom 328 104 4 0 127 0 to - -;
#X obj 426 36 loadbang;
#X msg 294 53 20;
#X msg 451 77 80;
#X msg 426 101 1000;
#X msg 420 133 0;
#X obj 426 13 bng 15 250 50 0 empty empty empty 17 7 0 10 -262144 -1
-1;
#X obj 105 466 cnv 15 140 100 empty empty empty 20 12 2 14 -199857
-66577 0;
#X obj 110 472 tgl 20 0 empty empty arpeggio_ON/OFF 26 14 2 12 -262144
-1 -1 0 1;
#X obj 112 502 vradio 15 1 0 3 empty empty empty 0 -8 0 10 -262144
-1 -1 0;
#X text 130 500 up;
#X text 130 516 down;
#X text 129 532 random;
#N canvas 187 250 607 599 arpeggio 0;
#X obj 301 324 f;
#X obj 275 246 tgl 15 0 empty empty empty 17 7 0 10 -262144 -1 -1 0
1;
#X obj 148 84 sel 0 1;
#X obj 169 465 f;
#X obj 218 382 sel 1;
#X obj 301 358 spigot;
#X msg 349 241 1;
#X msg 336 268 0;
#X msg 390 239 1;
#X msg 396 267 0;
#X obj 227 238 + 1;
#X obj 436 358 - 1;
#X obj 216 344 >;
#X obj 297 389 - 0;
#X obj 433 388 <;
#X obj 361 322 spigot;
#X obj 412 463 f;
#X obj 129 353 - 0;
#X obj 439 413 sel 1;
#X obj 275 268 metro 600;
#X floatatom 297 412 5 0 0 0 - - -;
#X obj 321 106 -;
#X obj 309 73 bng 15 250 50 0 empty empty empty 17 7 0 10 -262144 -1
-1;
#X floatatom 320 133 5 0 0 0 - - -;
#X obj 322 183 random;
#X obj 358 167 + 1;
#X obj 261 135 +;
#X msg 425 243 1;
#X msg 431 271 0;
#X obj 420 324 spigot;
#X obj 45 98 / 100;
#X obj 68 10 inlet;
#X obj 123 5 inlet;
#X obj 164 4 inlet;
#X obj 24 10 inlet;
#X obj -18 11 inlet;
#X obj 297 432 outlet;
#X floatatom 212 281 5 0 0 0 - - -;
#X connect 0 0 5 0;
#X connect 0 0 15 0;
#X connect 1 0 19 0;
#X connect 2 0 6 0;
#X connect 2 0 9 0;
#X connect 2 0 28 0;
#X connect 2 1 7 0;
#X connect 2 1 8 0;
#X connect 2 1 28 0;
#X connect 2 2 7 0;
#X connect 2 2 9 0;
#X connect 2 2 27 0;
#X connect 3 0 0 1;
#X connect 4 0 3 0;
#X connect 5 0 10 0;
#X connect 5 0 13 0;
#X connect 6 0 5 1;
#X connect 7 0 5 1;
#X connect 8 0 15 1;
#X connect 9 0 15 1;
#X connect 10 0 0 1;
#X connect 10 0 12 0;
#X connect 11 0 0 1;
#X connect 11 0 14 0;
#X connect 12 0 4 0;
#X connect 13 0 20 0;
#X connect 14 0 18 0;
#X connect 15 0 11 0;
#X connect 15 0 13 0;
#X connect 16 0 0 1;
#X connect 17 0 3 1;
#X connect 17 0 14 1;
#X connect 18 0 16 0;
#X connect 19 0 0 0;
#X connect 19 0 24 0;
#X connect 20 0 36 0;
#X connect 21 0 23 0;
#X connect 22 0 21 0;
#X connect 22 0 26 0;
#X connect 23 0 25 0;
#X connect 24 0 26 0;
#X connect 25 0 24 1;
#X connect 26 0 29 0;
#X connect 27 0 29 1;
#X connect 28 0 29 1;
#X connect 29 0 13 0;
#X connect 30 0 19 1;
#X connect 31 0 30 0;
#X connect 32 0 17 0;
#X connect 32 0 22 0;
#X connect 32 0 21 1;
#X connect 32 0 26 1;
#X connect 33 0 22 0;
#X connect 33 0 21 0;
#X connect 33 0 16 1;
#X connect 34 0 1 0;
#X connect 35 0 2 0;
#X restore 279 443 pd arpeggio;
#N canvas 375 451 1623 348 cluster 0;
#X obj -295 57 unpack 0 1 2 3 4 5 6 7 8 9;
#X obj 112 -37 bng 15 250 50 0 empty empty empty 17 7 0 10 -262144
-1 -1;
#X obj -247 225 list 10 11 12 13 14 15 16 17 18 19;
#X obj -247 246 unpack 10 11 12 13 14 15 16 17 18 19;
#X obj -295 36 list 0 1 2 3 4 5 6 7 8 9;
#X obj -113 37 list 20 21 22 23 24 25 26 27 28 29;
#X obj -113 58 unpack 20 21 22 23 24 25 26 27 28 29;
#X obj -18 228 list 30 31 32 33 34 35 36 37 38 39;
#X obj -18 249 unpack 30 31 32 33 34 35 36 37 38 39;
#X obj 112 37 list 40 41 42 43 44 45 46 47 48 49;
#X obj 112 58 unpack 40 41 42 43 44 45 46 47 48 49;
#X obj 209 226 list 50 51 52 53 54 55 56 57 58 59;
#X obj 337 36 list 60 61 62 63 64 65 66 67 68 69;
#X obj 337 57 unpack 60 61 62 63 64 65 66 67 68 69;
#X obj 209 247 unpack 50 51 52 53 54 55 56 57 58 59;
#X obj 437 224 list 70 71 72 73 74 75 76 77 78 79;
#X obj 437 246 unpack 70 71 72 73 74 75 76 77 78 79;
#X obj 563 38 list 80 81 82 83 84 85 86 87 88 89;
#X obj 563 59 unpack 80 81 82 83 84 85 86 87 88 89;
#X obj 660 228 list 90 91 92 93 94 95 96 97 98 99;
#X obj 660 249 unpack 90 91 92 93 94 95 96 97 98 99;
#X obj 790 38 list 100 101 102 103 104 105 106 107 108 109;
#X obj 790 60 unpack 100 101 102 103 104 105 106 107 108 109;
#X obj 885 229 list 110 111 112 113 114 115 116 117 118 119;
#X obj 885 250 unpack 110 111 112 113 114 115 116 117 118 119;
#X obj 1077 38 list 120 121 122 123 124 125 126 127;
#X obj 1077 59 unpack 120 121 122 123 124 125 126 127;
#X obj 112 -61 inlet;
#X obj -282 145 outlet;
#X connect 0 0 28 0;
#X connect 0 1 28 0;
#X connect 0 2 28 0;
#X connect 0 3 28 0;
#X connect 0 4 28 0;
#X connect 0 5 28 0;
#X connect 0 6 28 0;
#X connect 0 7 28 0;
#X connect 0 8 28 0;
#X connect 0 9 28 0;
#X connect 1 0 4 0;
#X connect 1 0 2 0;
#X connect 1 0 5 0;
#X connect 1 0 7 0;
#X connect 1 0 9 0;
#X connect 1 0 11 0;
#X connect 1 0 12 0;
#X connect 1 0 15 0;
#X connect 1 0 17 0;
#X connect 1 0 19 0;
#X connect 1 0 21 0;
#X connect 1 0 23 0;
#X connect 1 0 25 0;
#X connect 2 0 3 0;
#X connect 3 0 28 0;
#X connect 3 1 28 0;
#X connect 3 2 28 0;
#X connect 3 3 28 0;
#X connect 3 4 28 0;
#X connect 3 5 28 0;
#X connect 3 6 28 0;
#X connect 3 7 28 0;
#X connect 3 8 28 0;
#X connect 3 9 28 0;
#X connect 4 0 0 0;
#X connect 5 0 6 0;
#X connect 6 0 28 0;
#X connect 6 1 28 0;
#X connect 6 2 28 0;
#X connect 6 3 28 0;
#X connect 6 4 28 0;
#X connect 6 5 28 0;
#X connect 6 6 28 0;
#X connect 6 7 28 0;
#X connect 6 8 28 0;
#X connect 6 9 28 0;
#X connect 7 0 8 0;
#X connect 8 0 28 0;
#X connect 8 1 28 0;
#X connect 8 2 28 0;
#X connect 8 3 28 0;
#X connect 8 4 28 0;
#X connect 8 5 28 0;
#X connect 8 6 28 0;
#X connect 8 7 28 0;
#X connect 8 8 28 0;
#X connect 8 9 28 0;
#X connect 9 0 10 0;
#X connect 10 0 28 0;
#X connect 10 1 28 0;
#X connect 10 2 28 0;
#X connect 10 3 28 0;
#X connect 10 4 28 0;
#X connect 10 5 28 0;
#X connect 10 6 28 0;
#X connect 10 7 28 0;
#X connect 10 8 28 0;
#X connect 10 9 28 0;
#X connect 11 0 14 0;
#X connect 12 0 13 0;
#X connect 13 0 28 0;
#X connect 13 1 28 0;
#X connect 13 2 28 0;
#X connect 13 3 28 0;
#X connect 13 4 28 0;
#X connect 13 5 28 0;
#X connect 13 6 28 0;
#X connect 13 7 28 0;
#X connect 13 8 28 0;
#X connect 13 9 28 0;
#X connect 14 0 28 0;
#X connect 14 1 28 0;
#X connect 14 2 28 0;
#X connect 14 3 28 0;
#X connect 14 4 28 0;
#X connect 14 5 28 0;
#X connect 14 6 28 0;
#X connect 14 7 28 0;
#X connect 14 8 28 0;
#X connect 14 9 28 0;
#X connect 15 0 16 0;
#X connect 16 0 28 0;
#X connect 16 1 28 0;
#X connect 16 2 28 0;
#X connect 16 3 28 0;
#X connect 16 4 28 0;
#X connect 16 5 28 0;
#X connect 16 6 28 0;
#X connect 16 7 28 0;
#X connect 16 8 28 0;
#X connect 16 9 28 0;
#X connect 17 0 18 0;
#X connect 18 0 28 0;
#X connect 18 1 28 0;
#X connect 18 2 28 0;
#X connect 18 3 28 0;
#X connect 18 4 28 0;
#X connect 18 5 28 0;
#X connect 18 6 28 0;
#X connect 18 7 28 0;
#X connect 18 8 28 0;
#X connect 18 9 28 0;
#X connect 19 0 20 0;
#X connect 20 0 28 0;
#X connect 20 1 28 0;
#X connect 20 2 28 0;
#X connect 20 3 28 0;
#X connect 20 4 28 0;
#X connect 20 5 28 0;
#X connect 20 6 28 0;
#X connect 20 7 28 0;
#X connect 20 8 28 0;
#X connect 20 9 28 0;
#X connect 21 0 22 0;
#X connect 22 0 28 0;
#X connect 22 1 28 0;
#X connect 22 2 28 0;
#X connect 22 3 28 0;
#X connect 22 4 28 0;
#X connect 22 5 28 0;
#X connect 22 6 28 0;
#X connect 22 7 28 0;
#X connect 22 8 28 0;
#X connect 22 9 28 0;
#X connect 23 0 24 0;
#X connect 24 0 28 0;
#X connect 24 1 28 0;
#X connect 24 2 28 0;
#X connect 24 3 28 0;
#X connect 24 4 28 0;
#X connect 24 5 28 0;
#X connect 24 6 28 0;
#X connect 24 7 28 0;
#X connect 24 8 28 0;
#X connect 24 9 28 0;
#X connect 25 0 26 0;
#X connect 26 0 28 0;
#X connect 26 1 28 0;
#X connect 26 2 28 0;
#X connect 26 3 28 0;
#X connect 26 4 28 0;
#X connect 26 5 28 0;
#X connect 26 6 28 0;
#X connect 26 7 28 0;
#X connect 27 0 1 0;
#X restore 523 257 pd cluster;
#X floatatom 165 501 5 0 1e+06 1 ms/tone - -;
#X obj 18 98 tgl 30 0 empty empty START/STOP 34 6 2 16 -199857 -1 -1
0 1;
#X floatatom 580 229 5 0 0 0 - - -;
#X floatatom 283 130 5 0 127 0 velocity - -;
#X msg 374 65 127;
#X obj 160 24 inlet;
#X obj 13 9 inlet;
#X obj 575 457 print velocity;
#X obj 523 323 moses;
#X obj 523 300 moses;
#X obj 666 262 f;
#X obj 666 179 tgl 15 0 empty empty empty 17 7 0 10 -262144 -1 -1 0
1;
#X floatatom 709 152 5 0 0 0 - - -;
#X floatatom 640 293 5 0 0 0 - - -;
#X obj 666 211 f;
#X floatatom 666 241 5 0 0 0 - - -;
#X msg 736 224 0;
#X obj 709 194 sel 1;
#X obj 574 358 list;
#X obj 458 221 + 1;
#X floatatom 310 493 5 0 0 0 - - -;
#X connect 1 0 15 3;
#X connect 1 0 25 1;
#X connect 2 0 15 4;
#X connect 2 0 36 0;
#X connect 3 0 4 0;
#X connect 3 0 5 0;
#X connect 3 0 6 0;
#X connect 3 0 21 0;
#X connect 4 0 1 0;
#X connect 5 0 2 0;
#X connect 6 0 17 0;
#X connect 7 0 11 0;
#X connect 8 0 3 0;
#X connect 10 0 15 1;
#X connect 11 0 15 0;
#X connect 15 0 37 0;
#X connect 16 0 26 0;
#X connect 17 0 15 2;
#X connect 18 0 28 0;
#X connect 20 0 19 0;
#X connect 21 0 20 0;
#X connect 22 0 20 0;
#X connect 25 1 35 0;
#X connect 26 0 25 0;
#X connect 27 0 30 0;
#X connect 28 0 34 0;
#X connect 28 0 16 0;
#X connect 29 0 31 1;
#X connect 30 0 35 1;
#X connect 31 0 32 0;
#X connect 32 0 27 0;
#X connect 33 0 32 0;
#X connect 34 0 31 0;
#X connect 34 1 33 0;
#X connect 35 0 24 0;
#X connect 36 0 26 1;
#X coords 0 0 1 1 358 248 2 10 90;
