#N canvas 246 394 422 469 10;
#X obj 14 94 cnv 15 155 40 empty empty empty 20 12 0 14 -154614 -66577
0;
#X obj 256 39 loadbang;
#X msg 27 58 20;
#X msg 76 61 80;
#X obj 256 16 bng 15 250 50 0 empty empty empty 17 7 0 10 -262144 -1
-1;
#N canvas 797 669 1623 348 cluster 0;
#X obj -295 57 unpack 0 1 2 3 4 5 6 7 8 9;
#X obj 112 -37 bng 15 250 50 0 empty empty empty 17 7 0 10 -262144
-1 -1;
#X obj -247 225 list 10 11 12 13 14 15 16 17 18 19;
#X obj -247 246 unpack 10 11 12 13 14 15 16 17 18 19;
#X obj -295 36 list 0 1 2 3 4 5 6 7 8 9;
#X obj -113 37 list 20 21 22 23 24 25 26 27 28 29;
#X obj -113 58 unpack 20 21 22 23 24 25 26 27 28 29;
#X obj -18 228 list 30 31 32 33 34 35 36 37 38 39;
#X obj -18 249 unpack 30 31 32 33 34 35 36 37 38 39;
#X obj 112 37 list 40 41 42 43 44 45 46 47 48 49;
#X obj 112 58 unpack 40 41 42 43 44 45 46 47 48 49;
#X obj 209 226 list 50 51 52 53 54 55 56 57 58 59;
#X obj 337 36 list 60 61 62 63 64 65 66 67 68 69;
#X obj 337 57 unpack 60 61 62 63 64 65 66 67 68 69;
#X obj 209 247 unpack 50 51 52 53 54 55 56 57 58 59;
#X obj 437 224 list 70 71 72 73 74 75 76 77 78 79;
#X obj 437 246 unpack 70 71 72 73 74 75 76 77 78 79;
#X obj 563 38 list 80 81 82 83 84 85 86 87 88 89;
#X obj 563 59 unpack 80 81 82 83 84 85 86 87 88 89;
#X obj 660 228 list 90 91 92 93 94 95 96 97 98 99;
#X obj 660 249 unpack 90 91 92 93 94 95 96 97 98 99;
#X obj 790 38 list 100 101 102 103 104 105 106 107 108 109;
#X obj 790 60 unpack 100 101 102 103 104 105 106 107 108 109;
#X obj 885 229 list 110 111 112 113 114 115 116 117 118 119;
#X obj 885 250 unpack 110 111 112 113 114 115 116 117 118 119;
#X obj 1077 38 list 120 121 122 123 124 125 126 127;
#X obj 1077 59 unpack 120 121 122 123 124 125 126 127;
#X obj 112 -61 inlet;
#X obj -284 146 outlet;
#X connect 0 0 28 0;
#X connect 0 1 28 0;
#X connect 0 2 28 0;
#X connect 0 3 28 0;
#X connect 0 4 28 0;
#X connect 0 5 28 0;
#X connect 0 6 28 0;
#X connect 0 7 28 0;
#X connect 0 8 28 0;
#X connect 0 9 28 0;
#X connect 1 0 4 0;
#X connect 1 0 2 0;
#X connect 1 0 5 0;
#X connect 1 0 7 0;
#X connect 1 0 9 0;
#X connect 1 0 11 0;
#X connect 1 0 12 0;
#X connect 1 0 15 0;
#X connect 1 0 17 0;
#X connect 1 0 19 0;
#X connect 1 0 21 0;
#X connect 1 0 23 0;
#X connect 1 0 25 0;
#X connect 2 0 3 0;
#X connect 3 0 28 0;
#X connect 3 1 28 0;
#X connect 3 2 28 0;
#X connect 3 3 28 0;
#X connect 3 4 28 0;
#X connect 3 5 28 0;
#X connect 3 6 28 0;
#X connect 3 7 28 0;
#X connect 3 8 28 0;
#X connect 3 9 28 0;
#X connect 4 0 0 0;
#X connect 5 0 6 0;
#X connect 6 0 28 0;
#X connect 6 1 28 0;
#X connect 6 2 28 0;
#X connect 6 3 28 0;
#X connect 6 4 28 0;
#X connect 6 5 28 0;
#X connect 6 6 28 0;
#X connect 6 7 28 0;
#X connect 6 8 28 0;
#X connect 6 9 28 0;
#X connect 7 0 8 0;
#X connect 8 0 28 0;
#X connect 8 1 28 0;
#X connect 8 2 28 0;
#X connect 8 3 28 0;
#X connect 8 4 28 0;
#X connect 8 5 28 0;
#X connect 8 6 28 0;
#X connect 8 7 28 0;
#X connect 8 8 28 0;
#X connect 8 9 28 0;
#X connect 9 0 10 0;
#X connect 10 0 28 0;
#X connect 10 1 28 0;
#X connect 10 2 28 0;
#X connect 10 3 28 0;
#X connect 10 4 28 0;
#X connect 10 5 28 0;
#X connect 10 6 28 0;
#X connect 10 7 28 0;
#X connect 10 8 28 0;
#X connect 10 9 28 0;
#X connect 11 0 14 0;
#X connect 12 0 13 0;
#X connect 13 0 28 0;
#X connect 13 1 28 0;
#X connect 13 2 28 0;
#X connect 13 3 28 0;
#X connect 13 4 28 0;
#X connect 13 5 28 0;
#X connect 13 6 28 0;
#X connect 13 7 28 0;
#X connect 13 8 28 0;
#X connect 13 9 28 0;
#X connect 14 0 28 0;
#X connect 14 1 28 0;
#X connect 14 2 28 0;
#X connect 14 3 28 0;
#X connect 14 4 28 0;
#X connect 14 5 28 0;
#X connect 14 6 28 0;
#X connect 14 7 28 0;
#X connect 14 8 28 0;
#X connect 14 9 28 0;
#X connect 15 0 16 0;
#X connect 16 0 28 0;
#X connect 16 1 28 0;
#X connect 16 2 28 0;
#X connect 16 3 28 0;
#X connect 16 4 28 0;
#X connect 16 5 28 0;
#X connect 16 6 28 0;
#X connect 16 7 28 0;
#X connect 16 8 28 0;
#X connect 16 9 28 0;
#X connect 17 0 18 0;
#X connect 18 0 28 0;
#X connect 18 1 28 0;
#X connect 18 2 28 0;
#X connect 18 3 28 0;
#X connect 18 4 28 0;
#X connect 18 5 28 0;
#X connect 18 6 28 0;
#X connect 18 7 28 0;
#X connect 18 8 28 0;
#X connect 18 9 28 0;
#X connect 19 0 20 0;
#X connect 20 0 28 0;
#X connect 20 1 28 0;
#X connect 20 2 28 0;
#X connect 20 3 28 0;
#X connect 20 4 28 0;
#X connect 20 5 28 0;
#X connect 20 6 28 0;
#X connect 20 7 28 0;
#X connect 20 8 28 0;
#X connect 20 9 28 0;
#X connect 21 0 22 0;
#X connect 22 0 28 0;
#X connect 22 1 28 0;
#X connect 22 2 28 0;
#X connect 22 3 28 0;
#X connect 22 4 28 0;
#X connect 22 5 28 0;
#X connect 22 6 28 0;
#X connect 22 7 28 0;
#X connect 22 8 28 0;
#X connect 22 9 28 0;
#X connect 23 0 24 0;
#X connect 24 0 28 0;
#X connect 24 1 28 0;
#X connect 24 2 28 0;
#X connect 24 3 28 0;
#X connect 24 4 28 0;
#X connect 24 5 28 0;
#X connect 24 6 28 0;
#X connect 24 7 28 0;
#X connect 24 8 28 0;
#X connect 24 9 28 0;
#X connect 25 0 26 0;
#X connect 26 0 28 0;
#X connect 26 1 28 0;
#X connect 26 2 28 0;
#X connect 26 3 28 0;
#X connect 26 4 28 0;
#X connect 26 5 28 0;
#X connect 26 6 28 0;
#X connect 26 7 28 0;
#X connect 27 0 1 0;
#X restore -11 195 pd cluster;
#X msg 124 70 127;
#X obj 201 24 inlet;
#X obj 17 20 inlet;
#X obj 8 260 moses;
#X obj -11 238 moses;
#X obj 104 180 tgl 15 0 empty empty empty 17 7 0 10 -262144 -1 -1 0
1;
#X floatatom 119 146 5 0 0 0 - - -;
#X obj 104 212 f;
#X floatatom 104 242 5 0 0 0 - - -;
#X msg 174 225 0;
#X obj 147 195 sel 1;
#X obj 12 359 list;
#X obj 72 221 + 1;
#X obj 128 22 inlet;
#X obj 65 19 inlet;
#X floatatom 55 112 4 0 127 2 from - -;
#X floatatom 87 112 4 0 127 2 to - -;
#X obj 17 99 tgl 30 0 empty empty empty -95 6 2 16 -199857 -1 -1 0
1;
#X floatatom 119 112 5 0 127 2 velocity - -;
#X obj 12 382 outlet;
#X connect 1 0 2 0;
#X connect 1 0 3 0;
#X connect 1 0 6 0;
#X connect 2 0 21 0;
#X connect 3 0 22 0;
#X connect 4 0 1 0;
#X connect 5 0 10 0;
#X connect 6 0 24 0;
#X connect 7 0 24 0;
#X connect 8 0 23 0;
#X connect 9 1 17 0;
#X connect 10 0 9 0;
#X connect 11 0 16 0;
#X connect 11 0 5 0;
#X connect 12 0 13 1;
#X connect 13 0 14 0;
#X connect 14 0 17 1;
#X connect 15 0 14 0;
#X connect 16 0 13 0;
#X connect 16 1 15 0;
#X connect 17 0 25 0;
#X connect 18 0 10 1;
#X connect 19 0 22 0;
#X connect 20 0 21 0;
#X connect 21 0 9 1;
#X connect 22 0 18 0;
#X connect 23 0 11 0;
#X connect 24 0 12 0;
#X coords 0 0 1 1 163 48 2 10 90;
