#N canvas 537 22 751 673 10;
#X obj 312 142 inlet;
#X obj 287 244 mtof;
#X obj 409 442 outlet~;
#X obj 287 221 unpack;
#X obj 273 369 *~;
#X obj 320 316 vline~;
#X obj 319 346 *~;
#X obj 369 313 ftot~;
#X obj 341 209 bng 15 250 50 0 empty empty empty 17 7 0 10 #fcfcfc #000000 #000000;
#X obj 282 271 * 0.5;
#X obj 277 293 osc~;
#X obj 273 317 *~;
#X obj 275 343 *~;
#X obj 370 370 vd~ \$1-fleischdelfin;
#X obj 313 491 delwrite~ \$1-fleischdelfin 1000;
#X obj 312 461 lop~ \$2;
#X obj 316 428 *~ 0.996;
#X obj 344 244 ftot;
#X msg 321 266 1 \$1 \, 0 \$1 \$1;
#X obj 385 399 hip~ 200;
#X obj 401 421 hip~ 200;
#X connect 0 0 3 0;
#X connect 0 0 8 0;
#X connect 1 0 7 0;
#X connect 1 0 9 0;
#X connect 1 0 17 0;
#X connect 3 0 1 0;
#X connect 4 0 16 0;
#X connect 5 0 6 0;
#X connect 5 0 6 1;
#X connect 6 0 4 1;
#X connect 7 0 13 0;
#X connect 9 0 10 0;
#X connect 10 0 11 0;
#X connect 10 0 11 1;
#X connect 10 0 12 1;
#X connect 11 0 12 0;
#X connect 12 0 4 0;
#X connect 13 0 16 0;
#X connect 13 0 19 0;
#X connect 15 0 14 0;
#X connect 16 0 15 0;
#X connect 17 0 18 0;
#X connect 18 0 5 0;
#X connect 19 0 20 0;
#X connect 20 0 2 0;
